<svg width="42" height="42" viewBox="0 0 42 42" xmlns="http://www.w3.org/2000/svg">
  <g transform="translate(5,10)">
    <!-- Ast -->
    <rect x="4" y="18" width="24" height="2" rx="1" fill="#5b4636" />

    <!-- Vogel-Körper -->
    <ellipse cx="18" cy="12" rx="9" ry="7" fill="#ff3b3b" />

    <!-- Flügel -->
    <ellipse cx="16" cy="13" rx="4.5" ry="3.5" fill="#e62a2a" />

    <!-- Kopf -->
    <circle cx="22" cy="9" r="4.2" fill="#ff3b3b" />

    <!-- Bauch / Markierung -->
    <path d="M13 11c2.5 3 5.5 4 8 4 0 0-2 3-6 3-2.5 0-4-1.5-4-3.5 0-1.2.7-2 2-3.5z" fill="#ffe8e8"/>

    <!-- Schnabel -->
    <polygon points="25,9 28,10.3 25,11.6" fill="#f5c25b" />

    <!-- Auge -->
    <circle cx="21.2" cy="8.3" r="0.7" fill="#111" />

    <!-- Füße -->
    <line x1="15" y1="18" x2="14" y2="20" stroke="#5b4636" stroke-width="1.2" stroke-linecap="round" />
    <line x1="17" y1="18" x2="18" y2="20" stroke="#5b4636" stroke-width="1.2" stroke-linecap="round" />
  </g>
</svg>
